<svg width="27" height="24" viewBox="0 0 27 24" fill="none" xmlns="http://www.w3.org/2000/svg">
<circle cx="14" cy="12" r="12" fill="#E6BDFF"/>
<g filter="url(#filter0_d_47_14)">
<path d="M5.218 15.35C4.92867 15.35 4.69067 15.266 4.504 15.098C4.32667 14.93 4.25667 14.678 4.294 14.342C4.30333 14.2207 4.33133 14.0947 4.378 13.964C4.434 13.824 4.49467 13.6887 4.56 13.558C4.616 13.4273 4.672 13.362 4.728 13.362C4.77467 13.362 4.77933 13.3993 4.742 13.474C4.62067 13.726 4.56 13.95 4.56 14.146C4.56 14.3513 4.63 14.5053 4.77 14.608C4.91933 14.7107 5.11067 14.762 5.344 14.762C5.80133 14.762 6.30533 14.6173 6.856 14.328C7.40667 14.0293 7.976 13.6513 8.564 13.194C9.152 12.7273 9.71667 12.242 10.258 11.738C9.894 11.7193 9.55333 11.7007 9.236 11.682C8.91867 11.6633 8.63867 11.654 8.396 11.654C8.19067 11.654 7.94333 11.6727 7.654 11.71C7.36467 11.7473 7.14067 11.8453 6.982 12.004C6.91667 12.0693 6.856 12.1673 6.8 12.298C6.75333 12.4193 6.73 12.5453 6.73 12.676C6.73 12.7133 6.73 12.7507 6.73 12.788C6.73933 12.816 6.74867 12.8487 6.758 12.886C6.72067 12.8673 6.65067 12.8533 6.548 12.844C6.45467 12.8253 6.394 12.7647 6.366 12.662C6.35667 12.634 6.352 12.5873 6.352 12.522C6.352 12.3727 6.408 12.2513 6.52 12.158C6.632 12.0553 6.76733 11.9667 6.926 11.892C7.08467 11.8173 7.22933 11.752 7.36 11.696C7.668 11.5653 7.98533 11.458 8.312 11.374C8.63867 11.29 8.97 11.248 9.306 11.248C9.68867 11.248 10.1647 11.262 10.734 11.29C11.1727 10.8607 11.5787 10.4547 11.952 10.072C12.3253 9.68933 12.6287 9.372 12.862 9.12C13.1887 8.77467 13.534 8.48067 13.898 8.238C14.2713 7.986 14.6493 7.80867 15.032 7.706H14.262C13.9353 7.706 13.5807 7.72 13.198 7.748C12.8153 7.776 12.456 7.83667 12.12 7.93C11.784 8.02333 11.504 8.16333 11.28 8.35C11.14 8.47133 11.0327 8.61133 10.958 8.77C10.8927 8.91933 10.86 9.05933 10.86 9.19C10.86 9.36733 10.9113 9.48867 11.014 9.554C11.0233 9.554 11.028 9.55867 11.028 9.568C11.028 9.596 10.9953 9.62867 10.93 9.666C10.8647 9.694 10.818 9.69867 10.79 9.68C10.6967 9.61467 10.6127 9.484 10.538 9.288C10.4727 9.08267 10.4493 8.91933 10.468 8.798C10.5147 8.50867 10.6407 8.27533 10.846 8.098C11.0607 7.91133 11.322 7.76667 11.63 7.664C11.9473 7.56133 12.2787 7.49133 12.624 7.454C12.9787 7.41667 13.3147 7.39333 13.632 7.384C13.9587 7.37467 14.234 7.37 14.458 7.37H15.984C16.0027 7.37 16.0073 7.37467 15.998 7.384C16.2313 7.28133 16.474 7.17867 16.726 7.076C16.9873 6.97333 17.2113 6.922 17.398 6.922C17.4447 6.922 17.4913 6.936 17.538 6.964C17.594 6.992 17.622 7.02 17.622 7.048C17.622 7.09467 17.5287 7.118 17.342 7.118C17.2487 7.118 17.1507 7.13667 17.048 7.174C16.9547 7.202 16.8287 7.3 16.67 7.468C16.5393 7.59867 16.376 7.80867 16.18 8.098C15.984 8.38733 15.7693 8.728 15.536 9.12C15.3027 9.50267 15.0693 9.91333 14.836 10.352C14.6027 10.7813 14.3787 11.206 14.164 11.626C13.9493 12.046 13.7627 12.4333 13.604 12.788C13.5853 12.844 13.534 12.9747 13.45 13.18C13.366 13.376 13.2867 13.5953 13.212 13.838C13.1373 14.0713 13.1 14.2813 13.1 14.468C13.1 14.72 13.1887 14.846 13.366 14.846C13.45 14.846 13.534 14.8273 13.618 14.79C13.7393 14.7433 13.8653 14.6733 13.996 14.58C14.1267 14.4867 14.2527 14.3793 14.374 14.258C14.6167 14.0247 14.822 13.8007 14.99 13.586C15.158 13.362 15.2607 13.2267 15.298 13.18C15.326 13.1333 15.3587 13.11 15.396 13.11C15.4333 13.11 15.452 13.1333 15.452 13.18C15.452 13.208 15.438 13.2453 15.41 13.292C15.3447 13.3853 15.2233 13.5487 15.046 13.782C14.8687 14.006 14.6587 14.2347 14.416 14.468C14.1827 14.7013 13.9307 14.8787 13.66 15C13.576 15.0373 13.4873 15.0653 13.394 15.084C13.3007 15.112 13.2073 15.126 13.114 15.126C12.9273 15.126 12.7547 15.0607 12.596 14.93C12.4467 14.7993 12.372 14.5847 12.372 14.286C12.372 14.0153 12.4233 13.726 12.526 13.418C12.638 13.1007 12.7407 12.844 12.834 12.648C13.0207 12.2467 13.24 11.7987 13.492 11.304C13.7533 10.8093 14.0193 10.3147 14.29 9.82C14.57 9.32533 14.8267 8.87733 15.06 8.476C15.2933 8.07467 15.4847 7.776 15.634 7.58C15.4847 7.58 15.284 7.64067 15.032 7.762C14.78 7.874 14.5093 8.028 14.22 8.224C13.94 8.41067 13.6787 8.63 13.436 8.882C13.1467 9.18067 12.8107 9.54467 12.428 9.974C12.0547 10.4033 11.6487 10.8513 11.21 11.318C11.4247 11.3273 11.6393 11.3367 11.854 11.346C12.0687 11.346 12.2833 11.346 12.498 11.346C12.6473 11.346 12.8107 11.332 12.988 11.304C13.1747 11.2667 13.3473 11.2107 13.506 11.136C13.506 11.136 13.478 11.1873 13.422 11.29C13.3753 11.3833 13.2913 11.4813 13.17 11.584C13.058 11.6773 12.904 11.7333 12.708 11.752C12.5307 11.7613 12.3533 11.7707 12.176 11.78C11.9987 11.78 11.8213 11.78 11.644 11.78C11.4947 11.78 11.3453 11.78 11.196 11.78C11.056 11.78 10.916 11.7753 10.776 11.766C10.3467 12.214 9.89867 12.6527 9.432 13.082C8.96533 13.502 8.494 13.8847 8.018 14.23C7.542 14.5753 7.066 14.846 6.59 15.042C6.12333 15.2473 5.666 15.35 5.218 15.35ZM14.9001 15.266C14.8348 15.266 14.7834 15.2473 14.7461 15.21C14.7088 15.182 14.7088 15.1587 14.7461 15.14C14.9514 15.1027 15.1288 15.028 15.2781 14.916C15.4274 14.7947 15.5488 14.6453 15.6421 14.468C15.8381 14.1413 16.0294 13.8147 16.2161 13.488C16.4028 13.152 16.5848 12.816 16.7621 12.48L18.1061 10.002C18.3208 9.61933 18.5074 9.25067 18.6661 8.896C18.8341 8.54133 18.9648 8.28467 19.0581 8.126C19.1234 8.00467 19.2354 7.89733 19.3941 7.804C19.5621 7.70133 19.7254 7.622 19.8841 7.566C19.8281 7.566 19.7721 7.566 19.7161 7.566C19.6601 7.55667 19.5994 7.552 19.5341 7.552C19.2448 7.552 18.9274 7.57067 18.5821 7.608C18.2461 7.636 17.9148 7.68267 17.5881 7.748C17.2708 7.81333 16.9908 7.902 16.7481 8.014C16.5054 8.126 16.3421 8.26133 16.2581 8.42C16.2208 8.504 16.1881 8.588 16.1601 8.672C16.1321 8.756 16.1181 8.84 16.1181 8.924C16.1181 9.13867 16.1928 9.29267 16.3421 9.386C16.3514 9.386 16.3561 9.39533 16.3561 9.414C16.3561 9.43267 16.3374 9.45133 16.3001 9.47C16.2721 9.48867 16.2441 9.49333 16.2161 9.484C16.1321 9.43733 16.0294 9.32533 15.9081 9.148C15.7868 8.96133 15.7121 8.80733 15.6841 8.686C15.6561 8.574 15.6421 8.47133 15.6421 8.378C15.6421 8.13533 15.7214 7.94867 15.8801 7.818C16.0388 7.678 16.2394 7.58 16.4821 7.524C16.7248 7.45867 16.9721 7.42133 17.2241 7.412C17.4854 7.39333 17.7141 7.384 17.9101 7.384C18.2088 7.384 18.5634 7.384 18.9741 7.384C19.3848 7.37467 19.7628 7.37 20.1081 7.37C20.1921 7.37 20.2854 7.37 20.3881 7.37C20.4908 7.36067 20.5981 7.356 20.7101 7.356C20.9621 7.356 21.2234 7.37 21.4941 7.398C21.7648 7.426 22.0121 7.48667 22.2361 7.58C22.4601 7.67333 22.6328 7.818 22.7541 8.014C22.8754 8.21933 22.9361 8.44333 22.9361 8.686C22.9361 8.91933 22.8894 9.15267 22.7961 9.386C22.7028 9.61933 22.5908 9.82 22.4601 9.988C22.3761 10.0907 22.2781 10.1933 22.1661 10.296C22.0541 10.3987 21.9281 10.4967 21.7881 10.59C21.6481 10.6833 21.4941 10.772 21.3261 10.856C21.1674 10.9307 20.9761 10.9913 20.7521 11.038C20.7428 11.038 20.7334 11.052 20.7241 11.08C20.7241 11.108 20.7334 11.122 20.7521 11.122C20.7988 11.1313 20.8781 11.1453 20.9901 11.164C21.1114 11.1733 21.2188 11.1873 21.3121 11.206C21.6388 11.2713 21.9094 11.4113 22.1241 11.626C22.3481 11.8313 22.4601 12.1113 22.4601 12.466C22.4601 12.8673 22.3528 13.236 22.1381 13.572C21.9328 13.908 21.6668 14.1973 21.3401 14.44C21.0134 14.6733 20.6728 14.8553 20.3181 14.986C19.8701 15.154 19.3568 15.238 18.7781 15.238C18.4328 15.238 18.0734 15.2053 17.7001 15.14C17.3268 15.0747 16.9861 14.9627 16.6781 14.804C16.6128 14.7667 16.5474 14.7387 16.4821 14.72C16.4168 14.692 16.3468 14.678 16.2721 14.678C16.1414 14.678 16.0014 14.7153 15.8521 14.79C15.7588 14.8273 15.6374 14.8973 15.4881 15C15.3388 15.1027 15.1708 15.1867 14.9841 15.252C14.9654 15.2613 14.9374 15.266 14.9001 15.266ZM18.3301 15.042C18.5728 15.042 18.8154 15.0187 19.0581 14.972C19.3008 14.916 19.5201 14.8507 19.7161 14.776C20.0614 14.6453 20.3788 14.4633 20.6681 14.23C20.9574 13.9873 21.1908 13.7027 21.3681 13.376C21.5548 13.04 21.6481 12.6667 21.6481 12.256C21.6481 11.9853 21.5781 11.78 21.4381 11.64C21.2981 11.4907 21.1208 11.388 20.9061 11.332C20.6914 11.276 20.4674 11.248 20.2341 11.248C20.0568 11.248 19.8888 11.2573 19.7301 11.276C19.5714 11.2947 19.4268 11.318 19.2961 11.346C19.0348 11.3927 18.8014 11.444 18.5961 11.5C18.5588 11.4813 18.5634 11.4487 18.6101 11.402C18.6568 11.346 18.7174 11.2853 18.7921 11.22C18.8761 11.1547 18.9414 11.1033 18.9881 11.066C19.0068 11.0473 19.0441 11.0193 19.1001 10.982C19.1654 10.9353 19.2168 10.912 19.2541 10.912C19.7114 10.912 20.1174 10.884 20.4721 10.828C20.8361 10.772 21.1488 10.6367 21.4101 10.422C21.6714 10.198 21.8861 9.85267 22.0541 9.386C22.1381 9.14333 22.1801 8.90533 22.1801 8.672C22.1801 8.40133 22.1148 8.168 21.9841 7.972C21.8534 7.76667 21.6434 7.64533 21.3541 7.608C21.3168 7.59867 21.2748 7.594 21.2281 7.594C21.1814 7.594 21.1348 7.594 21.0881 7.594C20.9108 7.594 20.7148 7.61733 20.5001 7.664C20.2948 7.71067 20.1408 7.79933 20.0381 7.93C19.8048 8.238 19.5808 8.588 19.3661 8.98C19.1514 9.36267 18.9461 9.75467 18.7501 10.156C18.5541 10.548 18.3674 10.9167 18.1901 11.262C17.9754 11.682 17.7561 12.1067 17.5321 12.536C17.3081 12.9653 17.0888 13.3993 16.8741 13.838C16.8181 13.95 16.7901 14.0573 16.7901 14.16C16.7901 14.3467 16.9068 14.5287 17.1401 14.706C17.2988 14.8273 17.4808 14.916 17.6861 14.972C17.9008 15.0187 18.1154 15.042 18.3301 15.042Z" fill="black"/>
</g>
<defs>
<filter id="filter0_d_47_14" x="0.238037" y="6.922" width="26.698" height="16.428" filterUnits="userSpaceOnUse" color-interpolation-filters="sRGB">
<feFlood flood-opacity="0" result="BackgroundImageFix"/>
<feColorMatrix in="SourceAlpha" type="matrix" values="0 0 0 0 0 0 0 0 0 0 0 0 0 0 0 0 0 0 127 0" result="hardAlpha"/>
<feOffset dy="4"/>
<feGaussianBlur stdDeviation="2"/>
<feComposite in2="hardAlpha" operator="out"/>
<feColorMatrix type="matrix" values="0 0 0 0 0 0 0 0 0 0 0 0 0 0 0 0 0 0 0.25 0"/>
<feBlend mode="normal" in2="BackgroundImageFix" result="effect1_dropShadow_47_14"/>
<feBlend mode="normal" in="SourceGraphic" in2="effect1_dropShadow_47_14" result="shape"/>
</filter>
</defs>
</svg>
